<svg xmlns="http://www.w3.org/2000/svg" viewBox="0 0 64 64" fill="none">
  <rect width="64" height="64" rx="14" fill="#123bd6" />
  <path d="M32 11v42" stroke="#f8fbff" stroke-width="5" stroke-linecap="round" />
  <path d="M32 18c-9.4-5.6-18.8-3.8-25 1.4 7.4-.8 15.2.8 22.2 6.2" stroke="#f8fbff" stroke-width="3.8" stroke-linecap="round" stroke-linejoin="round" />
  <path d="M32 18c9.4-5.6 18.8-3.8 25 1.4-7.4-.8-15.2.8-22.2 6.2" stroke="#f8fbff" stroke-width="3.8" stroke-linecap="round" stroke-linejoin="round" />
  <path d="M32 48c-9.2-4-12.2-10.6-5.4-16.6-8 3.2-9.4 11.8-1.4 16" stroke="#f8fbff" stroke-width="3.8" stroke-linecap="round" stroke-linejoin="round" />
  <path d="M32 48c9.2-4 12.2-10.6 5.4-16.6 8 3.2 9.4 11.8 1.4 16" stroke="#f8fbff" stroke-width="3.8" stroke-linecap="round" stroke-linejoin="round" />
  <circle cx="32" cy="12" r="5" fill="#f8fbff" />
</svg>
